<svg xmlns="http://www.w3.org/2000/svg" viewBox="0 0 45.195 22.727"><path d="M 14.167 3.747 C 14.259 3.268 14.316 2.778 14.316 2.276 L 11.107 2.276 C 10.064 2.276 9.078 2.755 8.425 3.595 L 7.164 5.194 L 5.903 3.595 C 5.33 2.872 4.505 2.405 3.611 2.3 C 3.542 2.288 3.485 2.288 3.416 2.288 L 0 2.288 C 0 2.918 0.08 3.525 0.229 4.109 C 0.287 4.342 0.355 4.576 0.436 4.798 C 0.481 4.914 0.516 5.019 0.562 5.124 C 1.651 7.728 4.195 9.572 7.164 9.572 C 10.614 9.572 13.502 7.074 14.167 3.747 Z M 44.737 8.089 C 44.588 7.576 44.393 7.085 44.164 6.607 C 44.129 6.525 44.084 6.455 44.049 6.373 C 43.969 6.222 43.889 6.058 43.808 5.907 C 43.682 5.673 43.545 5.463 43.396 5.241 C 41.482 2.346 38.238 0.455 34.547 0.455 C 31.303 0.455 28.61 1.377 26.535 4.004 C 26.157 4.494 25.79 5.031 25.446 5.638 C 25.389 5.731 25.343 5.825 25.297 5.918 C 25.205 6.105 25.114 6.303 25.022 6.502 C 24.976 6.607 24.93 6.7 24.896 6.805 C 23.75 9.689 23.383 13.436 20.529 15.222 C 19.417 15.98 17.996 16.494 16.414 16.599 C 16.299 16.611 16.185 16.611 16.07 16.622 L 15.726 16.622 C 13.766 16.622 11.989 16.027 10.706 15.058 C 10.305 14.755 9.949 14.416 9.651 14.054 C 9.41 13.762 9.216 13.447 9.055 13.12 C 9.009 13.039 8.975 12.957 8.941 12.875 C 8.734 12.373 8.62 11.848 8.62 11.288 L 5.685 11.288 C 5.685 12.222 5.8 13.132 6.018 14.008 C 6.063 14.183 6.109 14.358 6.155 14.521 C 6.316 15.035 6.499 15.525 6.728 16.004 C 6.763 16.085 6.809 16.167 6.843 16.237 C 6.923 16.389 7.003 16.552 7.084 16.704 C 7.129 16.774 7.175 16.856 7.21 16.926 C 7.301 17.078 7.393 17.218 7.485 17.369 C 7.771 17.801 8.092 18.21 8.436 18.595 C 8.551 18.723 8.665 18.852 8.792 18.969 C 9.032 19.214 9.284 19.447 9.548 19.669 C 10.465 20.439 11.52 21.058 12.666 21.49 C 12.826 21.548 12.998 21.607 13.159 21.665 C 13.915 21.898 14.695 22.062 15.508 22.12 C 15.783 22.144 16.059 22.155 16.334 22.155 L 34.524 22.155 C 38.203 22.155 41.459 20.253 43.373 17.369 L 43.786 16.704 C 43.877 16.552 43.958 16.401 44.038 16.237 C 44.072 16.155 44.118 16.085 44.152 16.004 C 44.382 15.525 44.565 15.035 44.725 14.521 C 44.783 14.346 44.829 14.183 44.863 14.008 C 45.081 13.144 45.195 12.233 45.195 11.288 C 45.195 10.354 45.081 9.443 44.863 8.568 C 44.84 8.428 44.783 8.253 44.737 8.089 Z M 40.45 6.642 L 40.416 6.852 C 40.37 7.031 40.274 7.193 40.141 7.319 C 40.095 7.366 40.049 7.401 40.003 7.436 C 39.98 7.447 39.957 7.471 39.934 7.482 C 39.9 7.506 39.866 7.517 39.831 7.541 C 39.797 7.564 39.751 7.576 39.716 7.587 L 39.579 7.622 C 39.51 7.634 39.441 7.646 39.373 7.646 C 39.315 7.646 39.247 7.634 39.189 7.634 C 39.12 7.622 39.063 7.611 39.006 7.576 C 38.994 7.576 38.983 7.564 38.971 7.564 C 38.845 7.506 38.719 7.424 38.616 7.319 C 38.192 6.887 38.192 6.175 38.616 5.743 C 38.719 5.638 38.845 5.556 38.971 5.498 C 38.983 5.498 38.994 5.486 39.006 5.486 C 39.063 5.463 39.132 5.451 39.189 5.44 C 39.247 5.428 39.315 5.416 39.373 5.416 C 39.441 5.416 39.51 5.428 39.579 5.44 L 39.716 5.475 C 39.762 5.486 39.797 5.498 39.831 5.521 C 39.866 5.533 39.9 5.556 39.934 5.58 C 39.957 5.591 39.98 5.615 40.003 5.626 C 40.049 5.661 40.095 5.696 40.141 5.743 C 40.278 5.883 40.37 6.047 40.416 6.21 C 40.439 6.28 40.45 6.35 40.45 6.42 Z" fill="currentColor"></path></svg>
